HIERARCHY
ROOT Hips
{
	OFFSET -14.64140 90.27770 -84.91600
	CHANNELS 6 Xposition Yposition Zposition Zrotation Xrotation Yrotation
	JOINT Spine
	{
		OFFSET 0.00000 13.20850 -1.60436
		CHANNELS 3 Zrotation Xrotation Yrotation
		JOINT Spine1
		{
			OFFSET 0.00000 8.61716 0.00000
			CHANNELS 3 Zrotation Xrotation Yrotation
			JOINT Spine2
			{
				OFFSET 0.00000 8.61717 0.00000
				CHANNELS 3 Zrotation Xrotation Yrotation
				JOINT Spine3
				{
					OFFSET 0.00000 8.61717 0.00000
					CHANNELS 3 Zrotation Xrotation Yrotation
					JOINT Neck
					{
						OFFSET 0.00000 11.07920 1.10792
						CHANNELS 3 Zrotation Xrotation Yrotation
						JOINT Neck1
						{
							OFFSET 0.00000 7.08032 0.00000
							CHANNELS 3 Zrotation Xrotation Yrotation
							JOINT Head
							{
								OFFSET 0.00000 7.08031 0.00000
								CHANNELS 3 Zrotation Xrotation Yrotation
								End site
								{
									OFFSET 0.00000 0.00000 0.00000
								}
							}
						}
					}
					JOINT RightShoulder
					{
						OFFSET -0.01000 7.91373 5.19711
						CHANNELS 3 Zrotation Xrotation Yrotation
						JOINT RightArm
						{
							OFFSET -18.41580 0.00000 0.00000
							CHANNELS 3 Zrotation Xrotation Yrotation
							JOINT RightForeArm
							{
								OFFSET -29.11090 0.00000 0.00000
								CHANNELS 3 Zrotation Xrotation Yrotation
								JOINT RightHand
								{
									OFFSET -24.65040 0.00000 0.00000
									CHANNELS 3 Zrotation Xrotation Yrotation
									JOINT RightHandThumb1
									{
										OFFSET -5.35114 -0.85590 3.97906
										CHANNELS 3 Zrotation Xrotation Yrotation
										JOINT RightHandThumb2
										{
											OFFSET -4.52789 0.00000 0.00000
											CHANNELS 3 Zrotation Xrotation Yrotation
											JOINT RightHandThumb3
											{
												OFFSET -2.46976 0.00000 0.00000
												CHANNELS 3 Zrotation Xrotation Yrotation
												End site
												{
													OFFSET 0.00000 0.00000 0.00000
												}
											}
										}
									}
									JOINT RightHandIndex1
									{
										OFFSET -14.26970 0.00000 2.88139
										CHANNELS 3 Zrotation Xrotation Yrotation
										JOINT RightHandIndex2
										{
											OFFSET -5.48836 0.00000 0.00000
											CHANNELS 3 Zrotation Xrotation Yrotation
											JOINT RightHandIndex3
											{
												OFFSET -3.01859 0.00000 0.00000
												CHANNELS 3 Zrotation Xrotation Yrotation
												End site
												{
													OFFSET 0.00000 0.00000 0.00000
												}
											}
										}
									}
									JOINT RightHandMiddle1
									{
										OFFSET -14.26970 0.00000 -0.09147
										CHANNELS 3 Zrotation Xrotation Yrotation
										JOINT RightHandMiddle2
										{
											OFFSET -6.17441 0.00000 0.00000
											CHANNELS 3 Zrotation Xrotation Yrotation
											JOINT RightHandMiddle3
											{
												OFFSET -3.56743 0.00000 0.00000
												CHANNELS 3 Zrotation Xrotation Yrotation
												End site
												{
													OFFSET 0.00000 0.00000 0.00000
												}
											}
										}
									}
									JOINT RightHandRing1
									{
										OFFSET -12.69180 0.00000 -3.06433
										CHANNELS 3 Zrotation Xrotation Yrotation
										JOINT RightHandRing2
										{
											OFFSET -5.62556 0.00000 0.00000
											CHANNELS 3 Zrotation Xrotation Yrotation
											JOINT RightHandRing3
											{
												OFFSET -3.56744 0.00000 0.00000
												CHANNELS 3 Zrotation Xrotation Yrotation
												End site
												{
													OFFSET 0.00000 0.00000 0.00000
												}
											}
										}
									}
									JOINT RightHandPinky1
									{
										OFFSET -11.11390 0.00000 -6.03719
										CHANNELS 3 Zrotation Xrotation Yrotation
										JOINT RightHandPinky2
										{
											OFFSET -4.52789 0.00000 0.00000
											CHANNELS 3 Zrotation Xrotation Yrotation
											JOINT RightHandPinky3
											{
												OFFSET -2.46976 0.00000 0.00000
												CHANNELS 3 Zrotation Xrotation Yrotation
												End site
												{
													OFFSET 0.00000 0.00000 0.00000
												}
											}
										}
									}
								}
							}
						}
					}
					JOINT LeftShoulder
					{
						OFFSET 0.01000 7.91373 5.19711
						CHANNELS 3 Zrotation Xrotation Yrotation
						JOINT LeftArm
						{
							OFFSET 18.41580 0.00000 0.00000
							CHANNELS 3 Zrotation Xrotation Yrotation
							JOINT LeftForeArm
							{
								OFFSET 29.11090 0.00000 0.00000
								CHANNELS 3 Zrotation Xrotation Yrotation
								JOINT LeftHand
								{
									OFFSET 24.65040 0.00000 0.00000
									CHANNELS 3 Zrotation Xrotation Yrotation
									JOINT LeftHandThumb1
									{
										OFFSET 5.35114 -0.85590 3.97906
										CHANNELS 3 Zrotation Xrotation Yrotation
										JOINT LeftHandThumb2
										{
											OFFSET 4.52789 0.00000 0.00000
											CHANNELS 3 Zrotation Xrotation Yrotation
											JOINT LeftHandThumb3
											{
												OFFSET 2.46977 0.00000 0.00000
												CHANNELS 3 Zrotation Xrotation Yrotation
												End site
												{
													OFFSET 0.00000 0.00000 0.00000
												}
											}
										}
									}
									JOINT LeftHandIndex1
									{
										OFFSET 14.26970 0.00000 2.88139
										CHANNELS 3 Zrotation Xrotation Yrotation
										JOINT LeftHandIndex2
										{
											OFFSET 5.48836 0.00000 0.00000
											CHANNELS 3 Zrotation Xrotation Yrotation
											JOINT LeftHandIndex3
											{
												OFFSET 3.01859 0.00000 0.00000
												CHANNELS 3 Zrotation Xrotation Yrotation
												End site
												{
													OFFSET 0.00000 0.00000 0.00000
												}
											}
										}
									}
									JOINT LeftHandMiddle1
									{
										OFFSET 14.26970 0.00000 -0.09147
										CHANNELS 3 Zrotation Xrotation Yrotation
										JOINT LeftHandMiddle2
										{
											OFFSET 6.17440 0.00000 0.00000
											CHANNELS 3 Zrotation Xrotation Yrotation
											JOINT LeftHandMiddle3
											{
												OFFSET 3.56744 0.00000 0.00000
												CHANNELS 3 Zrotation Xrotation Yrotation
												End site
												{
													OFFSET 0.00000 0.00000 0.00000
												}
											}
										}
									}
									JOINT LeftHandRing1
									{
										OFFSET 12.69180 0.00000 -3.06433
										CHANNELS 3 Zrotation Xrotation Yrotation
										JOINT LeftHandRing2
										{
											OFFSET 5.62556 0.00000 0.00000
											CHANNELS 3 Zrotation Xrotation Yrotation
											JOINT LeftHandRing3
											{
												OFFSET 3.56744 0.00000 0.00000
												CHANNELS 3 Zrotation Xrotation Yrotation
												End site
												{
													OFFSET 0.00000 0.00000 0.00000
												}
											}
										}
									}
									JOINT LeftHandPinky1
									{
										OFFSET 11.11390 0.00000 -6.03719
										CHANNELS 3 Zrotation Xrotation Yrotation
										JOINT LeftHandPinky2
										{
											OFFSET 4.52789 0.00000 0.00000
											CHANNELS 3 Zrotation Xrotation Yrotation
											JOINT LeftHandPinky3
											{
												OFFSET 2.46976 0.00000 0.00000
												CHANNELS 3 Zrotation Xrotation Yrotation
												End site
												{
													OFFSET 0.00000 0.00000 0.00000
												}
											}
										}
									}
								}
							}
						}
					}
					JOINT pCube4
					{
						OFFSET 0.00000 10.91090 1.10792
						CHANNELS 3 Zrotation Xrotation Yrotation
						End site
						{
							OFFSET 0.00000 0.00000 0.00000
						}
					}
				}
			}
		}
	}
	JOINT RightUpLeg
	{
		OFFSET -9.98441 0.00000 0.00000
		CHANNELS 3 Zrotation Xrotation Yrotation
		JOINT RightLeg
		{
			OFFSET 0.00000 -42.11790 0.00000
			CHANNELS 3 Zrotation Xrotation Yrotation
			JOINT RightFoot
			{
				OFFSET 0.00000 -45.00020 -0.00001
				CHANNELS 3 Zrotation Xrotation Yrotation
				JOINT RightForeFoot
				{
					OFFSET 0.00000 -3.74820 0.00000
					CHANNELS 3 Zrotation Xrotation Yrotation
					JOINT RightToeBase
					{
						OFFSET 0.00000 0.06325 14.43120
						CHANNELS 3 Zrotation Xrotation Yrotation
						End site
						{
							OFFSET 0.00000 0.00000 0.00000
						}
					}
				}
			}
		}
	}
	JOINT LeftUpLeg
	{
		OFFSET 9.98441 0.00000 0.00000
		CHANNELS 3 Zrotation Xrotation Yrotation
		JOINT LeftLeg
		{
			OFFSET 0.00000 -42.11800 0.00000
			CHANNELS 3 Zrotation Xrotation Yrotation
			JOINT LeftFoot
			{
				OFFSET 0.00000 -45.00070 0.00000
				CHANNELS 3 Zrotation Xrotation Yrotation
				JOINT LeftForeFoot
				{
					OFFSET 0.00000 -3.74824 0.00000
					CHANNELS 3 Zrotation Xrotation Yrotation
					JOINT LeftToeBase
					{
						OFFSET 0.00000 0.06325 14.43110
						CHANNELS 3 Zrotation Xrotation Yrotation
						End site
						{
							OFFSET 0.00000 0.00000 0.00000
						}
					}
				}
			}
		}
	}
}
MOTION
Frames: 4
Frame Time: 0.050000
0.027219604042553525 0.03365000452730178 -0.0028782576940709487 0.01704685510180527 0.012493956677493673 0.030116637914454503 4.407213324319474 3.08132354245095 -2.120578602311836 -0.7538082984088328 3.5989733995935898 0.3654065959028859 -0.6994130479941502 -1.2687296209845818 0.670934417656668 -0.42551560462789584 -0.57683379737261 -0.3362584019279747 0.24297716391173765 13.302973007766177 -2.0203302204343925 0.4503695174003062 0.0015337422007323485 -4.657342073270182 1.0946689396293294 -15.980462182242295 -0.4146336748117277 -11.15451995553845 3.7375805510721887 -17.05143752225168 78.38530699159794 -4.075806926232589 19.93069333252307 11.506089817571981 3.8495274809089097 80.34233899743413 13.134922933766761 -0.32817857006929024 -1.648869440618863 4.540274579919291 -0.09527082844894233 -1.5495935616505745 5.609763688119519e-05 0.039511469426351344 -56.207469493177186 -0.01930206397629376 -0.012821382994966166 -56.23210193905929 -38.81018106764065 -0.013684121314217224 0.016041023208753325 0.02474460572007486 -0.03676024245721038 0.026150241390683445 -0.0018585501480162378 0.014082086255750845 0.03201610632364224 -36.740386644043895 0.020591825945766685 0.032740521247155645 -0.041882316846198954 0.007198373001989861 -0.034103631424562596 0.04490216663139291 -0.023227048342867266 0.03423846916662077 -19.747534366495206 0.022747644473240097 -0.01287390536374971 -0.004399588825037386 0.013386751877959227 -0.026155054392097983 -0.023513774066898654 -0.037846661795083864 -0.026557489731270322 24.035410420674545 0.014036302944496497 -0.033904685215719335 28.852401701686617 0.013391264275739133 0.030967552278797456 28.85930421328064 -0.04617830775328095 0.01187133092880564 11.12603354384212 2.631658807676296 14.535632895647026 -69.96533269338703 12.358521888484152 -22.96365823636923 -5.162800492128586 -1.4125774157481301 -84.39359933875276 -15.390541351904595 -0.42241077960825046 -2.149435492892571 -0.47189849701121733 0.0375822246247382 -8.169265097942654 -0.03285109587230836 -0.006675865944283826 44.61173236710863 -0.013873447668922493 0.04801816642188749 44.53117832813121 12.413715092015275 -0.003783894637782784 -0.010600806448540733 -0.005518934780331927 -0.01390734083687128 0.008996394422152526 0.0042663707806703585 0.015234412994468935 0.02925653929675231 11.082795688033956 0.008917473500581266 0.02693771972120018 0.043021116467190826 -0.02023523011640022 -0.016676588379148614 -0.03568616348311412 0.04158054874789694 -0.04099110632353928 4.815388395099142 0.030665037603676844 0.019187035854584988 -0.04632022520087134 0.010479955495448216 0.022278425948429235 -0.016630150016180758 0.023285333330163693 0.024862333784007037 -5.584904846855106 0.020660667594551804 -0.04091051396781361 -6.767152515122056 -0.0024558589479590914 0.027703005982288968 -6.715452734559614 -0.03501928396928472 0.018953183309081002 0.03295063322954481 0.048053449584187946 0.022941582321430527 8.011277868436352 3.5245800980357638 -19.18426780501082 -0.011346305848556193 10.4351044759727 -0.0031633866064184543 -5.6216710578877835 -15.610543028871625 3.193165277984972 0.04501728376443917 0.03292691429507615 -0.017665815734945137 0.004840001403173003 4.673183704803014 -0.025046540637995454 12.450924294496973 -8.241497461320646 6.893196634791861 -0.018852581849703336 46.33379424161339 -0.032399877114671405 -4.354494387487306 -14.706478801809173 -3.8353126357250265 -0.03393028099990605 -0.006573449870608018 0.032251058915456994 -0.026538143250049464 -10.697133779009512 -0.0004521016084960227 
-0.01204006220662176 0.02790242846882319 -0.04601080287558877 -0.007581293810202023 0.02347745604918162 -0.03568049553952004 4.51599610283855 2.7723333653157396 -2.103198466045136 -0.7350466542496525 3.5479349014391466 0.3846949922711958 -0.6962906334952486 -1.380680597233382 0.6715149421316168 -0.523882829137126 -0.5474286377026989 -0.36970097808974256 0.20088766640404415 13.724137425486651 -1.735363416178378 0.45208502596507966 0.15887147658484038 -3.8008017913779777 1.0485111701731078 -15.774566113101809 -0.3581168946170366 -11.732392504380647 3.9224364142316954 -16.852147163276193 78.70053151421014 -5.102145291613592 24.285329965684316 13.534879524620374 3.27791444802398 84.60180669475042 12.352762127033573 -0.33857684631915946 -1.5085786484474553 4.502599470971667 -0.08726716700927532 -1.5903073697470902 -0.03028638244226103 0.019262047161464315 -56.20343057949769 -0.01437593933508128 0.020896112853334963 -56.261037045134515 -38.794473297331564 -0.007015787761937009 -0.00106353654414214 0.03561592270986972 -0.011370539662546333 -0.003060575613549471 -0.03265945293634716 0.039332715135477155 0.019311523504668606 -36.66594877192509 0.007629058743247163 0.0032865312373699146 0.009820546507668861 -0.03866557156736498 0.010323212255423759 -0.028439207594111164 -0.02370294242533932 -0.01594215168249015 -19.727781733800253 0.0069269079281843145 0.0351693886651603 0.042007029356777824 0.010227135907779097 0.016964295989458807 0.045757946601734 -0.0038002013789227686 0.03463327748315386 24.084528904547167 0.01761218034420621 -0.04729817580867959 28.864304728408992 -0.03009185225699425 -0.016191241423000522 28.87745760393105 0.014564853612216542 0.043530321428392 11.953846914645219 2.72722306068337 14.322256600630906 -70.00665029569105 12.084598770788325 -27.508900712340253 -3.958642326341068 -3.2315108749690196 -89.31837466272134 -13.558402969552965 0.09584215530523003 -3.1981698371841123 -0.5230741379864497 0.08207561016348418 -8.09312350240576 0.029468665909305847 0.03606861381676454 44.60528625773156 0.020315494912782842 -0.04850026926345723 44.53394108174519 12.432535833098173 -0.033293887568780114 -0.014382933325376109 0.03261142627285164 -0.003936547869569917 0.00420579964582276 0.0026168107737956883 -0.034721859070632306 0.019356638460964783 11.122700520686767 -0.04286729739046589 -0.031595545290848126 0.016999027723628345 -0.01065458881498299 -0.03676790212405513 -0.0482243242918529 -0.04712868778591095 -0.03398250594298171 4.811331181128037 0.011623387870362862 0.02724790187589325 0.0075691706814627925 0.025300401252437734 0.027134762929403537 0.0012664265929976722 0.049774366368181173 -0.006833418340770662 -5.596453494712178 0.02446203140180242 0.015156041245908166 -6.726866682088021 0.011443668889350804 -0.012307724483646955 -6.719295463748607 -0.03147774942652291 -0.019478420599251547 -0.027578112867287376 0.042558458182924745 0.011300921169295323 8.03119134040983 3.487281229412349 -19.213376047815306 -0.03472452965174458 10.405832798692497 -0.010658225200530707 -5.587533070396316 -15.678712146452245 3.1730125181851183 0.00044765475740410636 0.020934685840273536 -0.02655133129703876 -0.0016863028942123524 4.696435714888595 0.033493555979726614 12.484470560019103 -8.230713059215683 6.876644647339897 -0.03181370802131153 46.42335456626938 0.03633189333031691 -4.291127496418418 -14.75056083746159 -3.8375441041107305 0.037260900669438914 0.027223130503879117 -0.017488605492955635 0.02433845256503385 -10.741596712622309 0.022234557767988588 
-0.0320216769725079 0.01469715802169761 -0.014096843053728 0.014869444654991092 0.029391790344485476 -0.013174930989362324 4.602366052889434 2.626215774317613 -2.1303429069067787 -0.75922616912991 3.483227493214967 0.34335367840417735 -0.6675923146983308 -1.3806562551266373 0.5324246874613434 -0.5586134342188214 -0.5974316162609843 -0.2967387934394151 0.02562600130517475 14.029661421538952 -1.5037364080152456 0.4725680582351104 0.3871771514149577 -3.0376062436125184 0.8949826852503135 -15.516874597662154 -0.2424705779175981 -12.0717987795798 4.033430155577252 -16.664007908963537 78.93473685291202 -5.547445555588074 27.033198588308075 14.105923409509007 2.791530030644731 87.14395222011953 11.673368482065714 -0.28993784686622964 -1.3653484513723384 4.535280786533079 -0.10738669904513519 -1.5871557546015385 -0.04176443453115625 0.007831318583793693 -56.25430417447257 0.0029669169293258177 0.002982823773639436 -56.205564619904486 -38.80482154604714 -0.009138036597153615 -0.01262146537755996 0.044282930962918104 0.0229587036201612 -0.039887756690224034 0.02408829931019084 -0.04864648869300917 -0.0209854513568491 -36.71229049660249 0.030896225646130555 0.0031502068653666403 0.009731349045296368 -0.03216525543747092 -0.007579222309477111 0.02840277343630493 -0.002640286027803991 0.009582785500048438 -19.736056419040057 0.03314156831551858 -0.03187788914192825 -0.040647021767458796 -0.013531740546322897 0.004670152795998932 0.002972542647597473 -0.03591779523504578 -0.0013495182045699594 24.05598367541307 -0.00777333615961627 -0.04849814268392765 28.901644474436363 0.028575445218661562 0.018810160775957784 28.842854079564315 -0.009201589958337114 -0.009674588181224509 12.589750767910141 2.8375814571468347 14.210860335460378 -70.2207448819532 11.704325572414037 -31.830227503382545 -2.1568673462419596 -4.598448224228218 -92.7340801689655 -11.660106792765557 0.8983146324992661 -4.336061631694511 -0.46474018414066937 0.11700088575324116 -8.076980551865104 0.04144584041045519 0.01896047615753747 44.57972021831577 0.0017321537200216503 -0.04121921776693104 44.543409376078344 12.484116808685119 0.03444141428814538 -0.022944652467127683 0.020876561143773238 -0.008866574983707576 -0.0296941426914537 -0.03752263995034193 -0.03683275374661587 -3.545864283396084e-05 11.147903878808437 0.027993035283855803 -0.028248665429912962 -0.0470211449385058 0.0036929104263193732 0.04108827736256528 0.01301929955806788 -0.003981892389310137 0.04267940210532715 4.7533735073065735 0.0099551577147947 0.04816977375199398 -0.0008325235221370104 0.025156939869709218 0.049851548413809996 -0.01752406658970597 0.026132976380497216 -0.020742336188260116 -5.59438558277248 -0.03787645706686817 0.006153665441615121 -6.757719135312817 0.046023082400279094 -0.0390073959761003 -6.684326136111512 0.015077439678017791 -0.014794931685549828 -0.04035825480540321 -0.038513723581366364 -0.023616275096762986 8.068568501244217 3.512210971622042 -19.26296936487446 -0.047325989070840006 10.390517783661133 0.04699944650511463 -5.664499923421728 -15.692372858454709 3.1973272091979816 0.01339820296209818 0.04457680639399424 0.027884220446655388 -0.04860115749873178 4.733496456783656 0.012268215808674748 12.48736643553775 -8.256299230277245 6.835746842692741 -0.04740464375724511 46.337634456161325 -0.02546101156672576 -4.317514644978129 -14.699300880721625 -3.8490193185427155 -0.01796836989576608 0.014721119439178875 -0.019501526294321204 0.040114625894986336 -10.793501737401328 0.03245200522859335 
-0.026850030171608204 -0.01211476237067585 -0.03767645667438144 0.0480562189457865 0.023033117259026833 0.007716681506203877 4.632320310188379 2.4965614362639883 -2.123532279477821 -0.7003577826690975 3.5288732318333493 0.3276027182592963 -0.6490318644122005 -1.4499173232291787 0.4123518640978369 -0.5800618671438851 -0.5504852610902277 -0.3284493180908579 -0.027815375254392094 14.266609016760885 -1.2524102754839865 0.4532232451839742 0.4530834753027398 -2.363731477742927 0.9040617558954591 -15.222974094750217 -0.1763846567327218 -12.151693757954593 4.082567160415442 -16.393406249195163 79.13532357439416 -4.9519461309520665 29.046280921718534 13.35122260084458 2.323265292109831 88.75900178200153 11.060298428899348 -0.22382179375982447 -1.0420120823558603 4.558486687066403 -0.10145327674098133 -1.578805295801824 -0.006345401700428667 0.03193959924638965 -56.267058256183944 0.020617737948382318 -0.016090115715218647 -56.18841431860253 -38.73002874719511 0.008580712006653063 -0.002365733452027718 -0.04884637051663816 0.009293301666423882 -0.0019227147843375015 -0.0013301941438365107 0.0023096251225502504 -0.02347638093247699 -36.706248248262966 0.03282724732880796 -0.030580876621594696 -0.016192794615952907 -0.03353939624879935 -0.03378871486343487 0.02869809730180208 -0.026152519280229332 -0.018515530693961942 -19.78788628735195 -0.046686324724296596 0.015235733887714502 -0.02208349898722517 -0.04546829360113037 -0.002266135450981859 -0.01634203844602024 0.027733295612671474 -0.0296017447707419 24.043973786608372 0.03888369178372548 -0.005677231727623837 28.911803642395867 0.007247271429647886 0.027177362252699396 28.910937652791265 0.00609085422258955 -0.014339073271835819 13.059227084491324 2.970589966664181 13.976520701716101 -70.66262253474514 11.840616275670975 -36.20478507322304 0.526401216351033 -5.898346858002271 -95.18779638897801 -9.946077414023978 2.1250463576480416 -5.61081108719864 -0.44181406972620135 0.06444944214685965 -8.107082544324152 0.04418896326597894 -0.025615196708147336 44.60677501838486 0.003452165405787556 -0.04588273381864728 44.5246438172448 12.486016110368752 -0.0081375883111387 -0.007044124408971046 0.03438249273826962 -0.04043076908917072 -0.0011971330124908623 0.02854893181469689 0.021372666361707232 0.02819883271534152 11.061541855124437 -0.00045554243436205394 -0.03675600684089597 0.0017741311971361956 -0.04079407933304879 0.013128114386704718 -0.02738074240383497 0.01855767589566373 -0.04793339846650062 4.771842395825308 -0.04582868212812618 -0.021515047002181126 -0.04562198591912953 0.03561466027931258 0.008480056403538595 0.010218343162350924 0.008849888297731008 -0.040175073870542595 -5.593542140821469 -0.03913295149083477 0.004656813842259301 -6.758761395306798 -0.019236918788238147 -0.04642193689884503 -6.743570355905142 0.02705774493831409 0.03412064628735052 -0.013848882868389444 -0.030751837163296592 -0.018543114412707583 8.021132032470335 3.510406604190114 -19.232389417947488 0.02246417720024179 10.368559660525843 -0.03154147859507071 -5.6600340974040515 -15.696445982587457 3.1854359548329696 0.02175255392368361 0.009122308513255106 -0.02447173234859008 -0.007774856724921851 4.699416028507775 0.009315303866271423 12.444554297043139 -8.231115889625558 6.909157212580145 0.0042496826026640665 46.37400548946557 0.038062431334362073 -4.295308652810116 -14.776946640843443 -3.804017028598421 -0.012762574506692539 -0.017592886150639572 -0.038833831833352296 -0.03559517212496644 -10.736658825424245 0.016969979555269684 
